<svg width="700" height="500" viewBox="0 0 700 500" fill="none" xmlns="http://www.w3.org/2000/svg">
<rect width="700" height="500" fill="#E5E5E5"/>
<g clip-path="url(#clip0)">
<path d="M64.8145 447.2C100.466 447.2 129.368 445.144 129.368 442.609C129.368 440.073 100.466 438.017 64.8145 438.017C29.1627 438.017 0.26123 440.073 0.26123 442.609C0.26123 445.144 29.1627 447.2 64.8145 447.2Z" fill="#AF9393"/>
<path d="M260.752 500C353.447 500 428.591 496.403 428.591 491.965C428.591 487.528 353.447 483.93 260.752 483.93C168.058 483.93 92.9141 487.528 92.9141 491.965C92.9141 496.403 168.058 500 260.752 500Z" fill="#AF9393"/>
<path d="M348.089 167.131L351.127 161.774L335.938 158.714L334.419 166.366L336.698 172.488L348.089 167.131Z" fill="#6C63FF"/>
<path opacity="0.2" d="M348.089 167.131L351.127 161.774L335.938 158.714L334.419 166.366L336.698 172.488L348.089 167.131Z" fill="black"/>
<path d="M339.356 163.687C350.261 163.687 359.101 154.78 359.101 143.792C359.101 132.804 350.261 123.896 339.356 123.896C328.45 123.896 319.61 132.804 319.61 143.792C319.61 154.78 328.45 163.687 339.356 163.687Z" fill="#FFB8B8"/>
<path d="M322.648 143.792L306.699 170.574L330.242 184.348L342.393 156.035L322.648 143.792Z" fill="#FFB8B8"/>
<path d="M321.129 175.165L300.624 166.748C300.624 166.748 269.486 172.105 266.448 182.052C263.411 192 263.411 272.348 263.411 272.348C263.411 272.348 255.816 292.244 266.448 293.009C266.448 293.009 263.411 297.6 266.448 298.365C269.486 299.131 300.624 298.365 312.775 302.191C324.926 306.018 349.228 309.078 349.228 305.252V298.365C349.228 298.365 354.545 293.009 351.507 283.826C348.469 274.644 344.672 254.748 344.672 254.748C344.672 254.748 367.455 204.244 365.177 198.122C362.899 192 335.082 173.071 335.082 173.071L321.129 175.165Z" fill="#6C63FF"/>
<path d="M274.043 272.348L274.802 278.47L285.435 265.461H281.637L274.043 272.348Z" fill="#FFB8B8"/>
<path d="M321.129 175.165L299.105 169.809C299.105 169.809 294.548 165.983 294.548 161.392C294.548 156.8 301.383 149.913 305.94 145.322C306.337 144.912 306.812 144.588 307.336 144.368C307.861 144.148 308.425 144.038 308.993 144.044C313.504 144.006 318.972 149.967 318.972 149.967L312.904 160.167L312.631 160.619L321.129 175.165Z" fill="#6C63FF"/>
<path d="M338.105 166.028L351.127 161.774C351.127 161.774 355.304 178.226 350.747 178.992C346.191 179.757 321.129 177.461 321.129 177.461L338.105 166.028Z" fill="#6C63FF"/>
<path d="M267.967 294.539L258.094 351.165C258.094 351.165 254.297 358.052 255.816 361.113C257.335 364.174 258.094 364.174 255.816 365.704C253.538 367.235 250.5 365.704 251.259 369.531C251.715 371.799 251.969 374.104 252.019 376.417L230.754 449.878C230.754 449.878 217.084 456 226.957 459.826C236.83 463.652 246.703 466.713 248.981 462.887C251.259 459.061 248.981 454.47 248.981 454.47L283.916 370.296C283.916 370.296 289.232 362.644 289.232 358.052C289.232 353.461 306.699 320.557 306.699 320.557C306.699 320.557 307.459 353.461 308.218 355.757C308.978 358.052 306.699 362.644 306.699 365.704C306.699 368.765 305.18 368.765 306.699 370.296C308.218 371.826 308.218 389.426 308.218 389.426C308.218 389.426 299.105 457.53 304.421 458.296C309.737 459.061 324.926 457.53 324.926 454.47C324.926 451.409 322.648 450.644 322.648 450.644L332.521 392.487C332.521 392.487 331.761 388.661 333.28 385.6C334.799 382.539 334.799 382.539 334.799 381.009C334.799 379.478 334.039 378.713 334.799 377.948C335.295 377.287 335.562 376.481 335.558 375.652C335.558 375.652 334.039 371.061 334.799 370.296C335.558 369.531 352.266 312.139 346.95 305.252C341.634 298.365 267.967 294.539 267.967 294.539Z" fill="#2F2E41"/>
<path d="M305.18 456L299.864 468.244C299.864 468.244 287.713 482.017 296.826 485.078C305.94 488.139 308.978 487.374 308.978 487.374C308.978 487.374 312.775 488.139 312.775 489.67C312.775 491.2 343.153 502.678 345.431 492.73C347.709 482.783 321.888 464.417 321.888 464.417V455.235L305.18 456Z" fill="#2F2E41"/>
<path d="M246.6 461.667L247.75 474.981C247.75 474.981 254.89 491.948 245.284 491.91C235.678 491.873 233.043 490.169 233.043 490.169C233.043 490.169 229.202 489.67 228.716 491.12C228.23 492.57 195.804 493.654 196.804 483.495C197.803 473.336 228.098 464.257 228.098 464.257L231.013 455.557L246.6 461.667Z" fill="#2F2E41"/>
<path d="M320.123 149.238C321.343 149.156 322.156 147.816 322.494 146.541C322.831 145.267 322.917 143.871 323.606 142.775C325.494 139.774 330.403 140.987 332.397 138.067C333.623 136.272 333.366 133.348 335.136 132.205C336.254 131.484 337.679 131.855 338.91 132.309C343.684 134.079 348.091 136.724 351.909 140.109L353.495 138.808L355.476 142.798C356.244 141.865 357.725 142.589 358.369 143.626C359.014 144.663 359.326 145.989 360.245 146.745C361.71 147.949 363.998 146.929 364.885 145.183C365.772 143.436 365.626 141.302 365.318 139.336C364.552 134.41 362.92 129.662 360.497 125.315L362.309 124.22L359.966 123.883L360.863 121.833L358.409 121.804L359.378 120.052C356.079 121.192 352.669 119.103 349.518 117.545C344.247 114.94 338.317 113.689 332.594 114.657C329.662 115.137 326.861 116.227 324.369 117.857C321.878 119.488 319.751 121.623 318.124 124.128C315.628 128.081 314.188 133.821 315.435 138.555C316.569 142.858 321.519 143.528 320.123 149.238Z" fill="#2F2E41"/>
<path d="M271.005 178.992C271.005 178.992 266.448 178.226 263.411 184.348C260.373 190.47 237.589 239.444 248.981 254.748C260.373 270.052 271.005 274.644 271.005 274.644L273.283 275.409L284.675 263.165L280.878 257.809C280.878 257.809 280.878 252.452 277.84 251.687C274.802 250.922 274.802 253.218 274.043 250.157C273.283 247.096 277.081 249.391 273.283 246.331C269.486 243.27 272.524 241.739 272.524 241.739L271.005 178.992Z" fill="#6C63FF"/>
<path d="M351.507 281.148L350.747 287.27L340.115 274.261H343.912L351.507 281.148Z" fill="#FFB8B8"/>
<path d="M350.368 195.444C350.368 195.444 361 190.087 364.038 196.209C367.075 202.331 387.96 248.244 376.569 263.548C365.177 278.852 354.545 283.444 354.545 283.444L352.266 284.209L340.874 271.965L344.672 266.609C344.672 266.609 344.672 261.252 347.71 260.487C350.747 259.722 350.747 262.018 351.507 258.957C352.266 255.896 348.469 258.191 352.266 255.131C356.063 252.07 353.026 250.539 353.026 250.539L350.368 195.444Z" fill="#6C63FF"/>
<path opacity="0.2" d="M278.22 209.218L269.866 242.887L279.739 255.131L275.182 239.827L278.22 209.218Z" fill="black"/>
<path opacity="0.2" d="M318.972 149.967L312.904 160.167C309.091 158.836 308.773 149.921 308.993 144.044C313.504 144.006 318.972 149.967 318.972 149.967Z" fill="black"/>
<path d="M189.945 471.126C190.076 484.742 182.089 489.575 172.179 489.672C171.949 489.674 171.72 489.674 171.492 489.671C171.033 489.665 170.578 489.649 170.128 489.621C161.178 489.071 154.181 484.141 154.058 471.478C153.931 458.373 170.394 441.672 171.629 440.437L171.631 440.436C171.678 440.389 171.702 440.365 171.702 440.365C171.702 440.365 189.813 457.51 189.945 471.126Z" fill="#30C135"/>
<path d="M164.131 405.445C164.224 415.056 158.586 418.467 151.591 418.536C151.429 418.538 151.267 418.538 151.106 418.536C150.782 418.532 150.461 418.52 150.143 418.5C143.826 418.112 138.886 414.632 138.8 405.694C138.71 396.443 150.331 384.654 151.203 383.782L151.204 383.781C151.237 383.748 151.254 383.731 151.254 383.731C151.254 383.731 164.038 395.834 164.131 405.445Z" fill="#30C135"/>
<path d="M151.392 420.425C176.558 420.425 196.959 418.974 196.959 417.184C196.959 415.394 176.558 413.943 151.392 413.943C126.226 413.943 105.825 415.394 105.825 417.184C105.825 418.974 126.226 420.425 151.392 420.425Z" fill="#AF9393"/>
<path d="M702.491 214H398.711V419H702.491V214Z" fill="black"/>
<path d="M483.864 266.164H453.35V268.727H483.864V266.164Z" fill="#53CDCD"/>
<path d="M524.55 266.164H494.036V268.727H524.55V266.164Z" fill="#6C63FF"/>
<path d="M583.672 289.865H553.158V292.427H583.672V289.865Z" fill="#6C63FF"/>
<path d="M624.994 289.865H594.479V292.427H624.994V289.865Z" fill="#AED14A"/>
<path d="M624.994 266.164H535.358V268.727H624.994V266.164Z" fill="#FF6392"/>
<path d="M542.986 289.865H453.35V292.427H542.986V289.865Z" fill="#FFA563"/>
<path d="M542.986 313.565H453.35V316.127H542.986V313.565Z" fill="#E83939"/>
<path d="M624.994 313.565H562.694V316.127H624.994V313.565Z" fill="#FF6392"/>
<path d="M444.773 276.981L434.038 266.165L444.773 255.348L446.921 257.512L438.333 266.165L446.921 274.817L444.773 276.981Z" fill="#6C63FF"/>
<path d="M653.914 326.944L651.766 324.78L660.354 316.126L651.766 307.474L653.914 305.31L664.649 316.126L653.914 326.944Z" fill="#6C63FF"/>
<path d="M642.612 304.794L636.254 325.932L639.162 326.82L645.519 305.682L642.612 304.794Z" fill="#E5E5E5"/>
<path d="M70.4854 422.156L126.736 337.87L70.6004 431.223L70.7178 440.708C66.6113 440.739 62.5446 440.67 58.5179 440.501L61.3078 318.587L61.2313 317.646L61.3343 317.465L61.6013 305.944L0 215.827L61.5286 297.322L61.747 299.757L63.8543 207.646L10.6473 114.216L64.0058 191.465L63.4488 0.635162L63.45 3.05176e-05L63.4681 0.624682L67.0001 151.024L115.492 89.9319L67.1589 163.981L68.2172 246.372L112.84 165.962L68.3812 258.485L68.9704 304.299L133.863 192.288L69.1677 320.281L70.4854 422.156Z" fill="#AF9393"/>
</g>
<defs>
<clipPath id="clip0">
<rect width="700" height="500" fill="white"/>
</clipPath>
</defs>
</svg>
